PathFileType  4	(X/Y/Z) C:\Users\antoi\Documents\MyRepositories\mobilecap\ResultsAnalysis
DataRate	CameraRate	NumFrames	NumMarkers	Units	OrigDataRate	OrigDataStartFrame	OrigNumFrames
100.0	100.0	5	51	mm	100.0	177	1414
Frame#	Time	r_knee			r_shank_antsup			r_ankle			r_calc			r_5meta			r_toe			L_knee			L_shank_antsup			L_ankle			L_calc			L_5meta			L_toe			r_sh2			r_sh3			r_sh4			L_sh2			L_sh3			r_thigh1			r_thigh2			r_thigh3			r_thigh4			r_thigh5			L_thigh1			L_thigh2			L_thigh3			L_thigh4			r.ASIS			r.PSIS			L.ASIS			L.PSIS			C7			R_Shoulder			L_Shoulder			R_Sternum			L_Sternum			R_humerus			R_elbow_med			R_elbow_lat			R_forearm			R_wrist_radius			R_wrist_ulna			L_humerus			L_elbow_med			L_elbow_lat			L_forearm			L_wrist_radius			L_wrist_ulna			R_HJC			L_HJC			R_HJC_reg			L_HJC_reg			
		X1	Y1	Z1	X2	Y2	Z2	X3	Y3	Z3	X4	Y4	Z4	X5	Y5	Z5	X6	Y6	Z6	X7	Y7	Z7	X8	Y8	Z8	X9	Y9	Z9	X10	Y10	Z10	X11	Y11	Z11	X12	Y12	Z12	X13	Y13	Z13	X14	Y14	Z14	X15	Y15	Z15	X16	Y16	Z16	X17	Y17	Z17	X18	Y18	Z18	X19	Y19	Z19	X20	Y20	Z20	X21	Y21	Z21	X22	Y22	Z22	X23	Y23	Z23	X24	Y24	Z24	X25	Y25	Z25	X26	Y26	Z26	X27	Y27	Z27	X28	Y28	Z28	X29	Y29	Z29	X30	Y30	Z30	X31	Y31	Z31	X32	Y32	Z32	X33	Y33	Z33	X34	Y34	Z34	X35	Y35	Z35	X36	Y36	Z36	X37	Y37	Z37	X38	Y38	Z38	X39	Y39	Z39	X40	Y40	Z40	X41	Y41	Z41	X42	Y42	Z42	X43	Y43	Z43	X44	Y44	Z44	X45	Y45	Z45	X46	Y46	Z46	X47	Y47	Z47	X48	Y48	Z48	X49	Y49	Z49	X50	Y50	Z50	X51	Y51	Z51	

177	1.76000000	-96.66519	478.16693	-350.50766	-74.82814	353.61299	-380.62296	-289.77817	97.07043	-440.27875	-353.40954	67.63293	-506.48859	-180.47340	35.69659	-373.37893	-127.26745	56.62169	-437.86760	-139.14632	504.67314	-903.58076	-90.38578	396.25045	-913.04264	-282.32156	99.75993	-905.90828	-346.25926	70.40201	-850.42944	-153.53205	35.11509	-953.96353	-115.15536	57.87251	-887.87336	-119.43046	254.36677	-422.63201	-138.79176	361.69587	-337.62903	-176.61173	252.42408	-361.14573	-173.07421	426.91006	-934.97234	-196.92816	309.20541	-955.98723	-245.39586	684.49881	-387.02439	-145.05867	634.20280	-383.84949	-139.51882	595.32667	-329.87106	-283.97021	612.55327	-307.24357	-177.11525	556.80112	-314.56380	-361.39870	605.50405	-853.30144	-240.85968	552.68139	-897.10026	-305.73458	688.65981	-803.17321	-187.25048	638.66139	-849.92223	-356.76601	731.50543	-431.88637	-474.68830	827.16572	-518.41179	-343.76762	694.62903	-691.54721	-471.51287	818.39172	-615.10461	-47.00493	1094.74020	-571.32084	4.91401	982.98688	-397.62852	1.84976	997.74962	-732.32236	15.40488	934.25399	-551.46584	10.09821	935.53332	-594.03903	38.93992	857.04015	-315.25237	25.12125	620.85526	-315.37733	60.29562	667.80458	-241.36188	184.98311	736.72828	-330.73033	277.92206	766.81944	-395.79698	299.03101	728.30199	-396.39392	35.52102	868.93585	-821.69548	18.01202	635.85197	-819.59212	64.57427	679.96086	-879.98251	155.31225	757.45684	-768.74890	251.75515	792.45293	-708.07306	271.46267	751.63106	-716.42913	-447.18954	685.45262	-458.20167	-447.56218	652.96006	-669.10590	-449.17025	685.46154	-468.06869	-443.50657	669.80834	-640.57377	
178	1.77000000	-97.84017	479.39730	-351.09736	-75.92517	354.56418	-381.02938	-290.01580	97.15557	-439.97509	-353.59846	67.48509	-506.07884	-180.47772	35.67009	-373.37665	-127.35273	56.65873	-437.82998	-140.84023	505.95912	-903.38095	-92.09077	397.56752	-913.16937	-282.42655	99.79980	-905.89255	-346.29873	70.40533	-850.48134	-153.53958	35.15041	-953.95118	-115.17776	57.92371	-887.85315	-120.19371	255.09419	-422.83509	-139.87415	362.48606	-337.90787	-177.39568	253.24225	-361.08833	-174.97369	427.74964	-934.74571	-198.24796	309.94740	-955.93472	-243.70888	687.94035	-386.69003	-144.23016	636.01146	-383.85990	-139.13670	596.95959	-330.19060	-283.40236	616.30894	-307.11501	-177.20399	559.06849	-314.75760	-361.55336	610.11924	-852.99332	-241.88793	555.73705	-897.21660	-304.66950	693.04246	-803.76555	-187.03313	641.44844	-850.93130	-354.25476	736.76948	-431.22892	-473.81627	834.39171	-517.70595	-342.76555	701.12229	-691.06698	-470.87470	825.80599	-614.40531	-47.48042	1103.49202	-571.17474	4.76129	991.85491	-397.48571	1.20513	1006.80261	-732.20148	15.18178	943.37580	-551.28005	9.81075	944.34586	-593.76218	38.36905	865.59034	-315.06323	23.48656	629.36666	-315.49540	58.87295	676.06540	-241.42327	183.61965	744.92967	-330.55228	276.50809	774.84840	-395.73843	297.59129	736.33252	-396.39400	34.42184	877.75212	-821.86398	16.01553	644.68487	-819.85093	62.61198	688.77294	-880.44703	153.54065	765.94133	-768.88576	249.95744	800.78069	-708.25605	269.72186	759.92653	-716.85720	-445.80816	691.83792	-457.69050	-446.95359	659.96177	-668.68395	-447.58286	691.70132	-467.39558	-442.33712	676.38586	-639.90316	
179	1.78000000	-99.07258	480.62866	-351.64911	-77.03042	355.43146	-381.54089	-290.20325	97.18395	-439.80199	-353.69208	67.44380	-505.95708	-180.49255	35.64636	-373.40147	-127.39414	56.68880	-437.78989	-142.62060	507.19894	-903.26753	-93.98526	398.48423	-912.91300	-282.56531	99.83954	-905.91782	-346.32793	70.39756	-850.49542	-153.53651	35.17325	-953.93808	-115.21793	57.96369	-887.81748	-120.90286	255.81951	-422.99134	-140.96146	363.20296	-338.35603	-177.91894	253.81933	-361.32643	-176.92371	428.53164	-934.45503	-199.70285	310.52452	-955.61884	-241.98538	691.28710	-386.37262	-143.45916	637.80028	-383.82786	-138.72617	598.55228	-330.28052	-282.70313	619.96629	-307.22327	-177.34504	561.19568	-315.08561	-361.74151	614.66884	-852.63720	-242.88932	558.52357	-896.98779	-303.63319	697.25920	-804.34881	-186.86896	643.83919	-851.64984	-351.62111	741.96276	-430.66994	-472.98494	841.68407	-516.97601	-342.04475	707.47993	-690.67643	-470.29868	833.15709	-613.60799	-48.00843	1112.47683	-570.90592	4.51175	1000.82386	-397.35720	0.50633	1016.12461	-732.09513	14.96304	952.64158	-551.20878	9.49628	953.43954	-593.53373	37.75596	874.28920	-314.83486	21.86113	638.05393	-315.50547	57.46446	684.55035	-241.39937	182.22587	753.24060	-330.48360	275.03065	783.12126	-395.65475	296.13130	744.47651	-396.41624	33.26347	886.80503	-821.90520	14.01814	653.68621	-820.05929	60.64214	697.69521	-880.76915	151.70058	774.58600	-769.08198	248.20197	809.16316	-708.53130	267.95302	768.42325	-717.38804	-444.39723	698.22895	-457.12139	-446.62172	666.90006	-668.18726	-446.08305	698.02754	-466.76399	-441.28733	682.80635	-639.25237	
180	1.79000000	-100.33003	481.78214	-352.17270	-78.12586	356.30013	-382.11359	-290.32234	97.15173	-439.76949	-353.74898	67.40546	-505.87308	-180.49202	35.64914	-373.42312	-127.39441	56.72989	-437.77148	-144.44933	508.37313	-903.20684	-96.03914	399.04536	-912.25278	-282.79328	99.89429	-906.01907	-346.33775	70.39217	-850.50679	-153.53370	35.18849	-953.93000	-115.25284	57.99959	-887.79978	-121.58112	256.55748	-423.16720	-142.04129	363.92649	-338.83584	-178.46621	254.26127	-361.73111	-178.86821	429.30479	-934.20353	-201.35275	310.67776	-954.83802	-240.15144	694.60951	-386.11375	-142.61730	639.53200	-383.87868	-138.30453	600.15048	-330.18323	-281.91478	623.50327	-307.45304	-177.61250	563.26239	-315.39831	-361.87830	619.15157	-852.46124	-243.84318	561.08854	-896.55542	-302.60898	701.29392	-804.90067	-186.65199	645.91393	-851.95087	-348.83553	747.16539	-430.14276	-472.18455	848.91733	-516.23146	-341.18034	713.93126	-690.31831	-469.71725	840.42794	-612.95916	-48.65011	1121.61405	-570.55891	4.09061	1009.94058	-397.11721	-0.27136	1025.60209	-732.00102	14.75109	961.85750	-551.04368	9.21761	963.01936	-593.53370	37.03271	883.06960	-314.65036	20.22358	646.92711	-315.50830	56.05499	693.24856	-241.24097	180.80980	761.66103	-330.49430	273.53402	791.55017	-395.70692	294.70770	752.84088	-396.50584	32.01085	895.97836	-821.65068	11.82903	662.87339	-820.38945	58.59921	706.74246	-880.85694	149.84344	783.35225	-769.36359	246.48771	817.62563	-708.86800	266.17067	776.96111	-717.75600	-442.82115	704.56318	-456.60678	-446.07838	673.79056	-667.74387	-444.42522	704.29967	-466.17953	-440.02554	689.16236	-638.64478	
181	1.80000000	-101.54336	482.87410	-352.71879	-79.21109	357.28602	-382.56963	-290.42241	97.16066	-439.76019	-353.82821	67.37532	-505.75825	-180.45499	35.72522	-373.42014	-127.38988	56.77551	-437.76814	-146.28003	509.51566	-903.22049	-98.01045	399.82033	-911.88839	-283.08174	99.97901	-906.12927	-346.34528	70.38891	-850.51431	-153.53377	35.19421	-953.92958	-115.25175	58.03966	-887.79007	-122.26323	257.28294	-423.37426	-143.12547	364.69849	-339.23725	-179.22105	254.80102	-362.07200	-180.81091	430.13047	-934.23743	-203.06624	310.62034	-953.99939	-238.27559	697.89096	-385.89784	-141.65615	641.20839	-384.05388	-137.90742	601.72576	-330.19638	-281.18140	627.03685	-307.50252	-177.90259	565.38303	-315.56856	-361.97572	623.51980	-852.46816	-244.82129	563.74495	-896.60432	-301.56476	705.14817	-805.40781	-186.42419	648.08124	-852.46344	-346.06078	752.23137	-429.55295	-471.36664	855.96646	-515.51274	-340.00891	720.28420	-689.86871	-469.11428	847.62686	-612.24746	-49.44430	1130.81260	-570.23560	3.60388	1019.21057	-396.76826	-1.11620	1035.20635	-731.95343	14.47419	971.29269	-550.86624	8.91258	972.81546	-593.58213	36.18456	891.96873	-314.52682	18.57177	655.88920	-315.52262	54.55890	702.05814	-241.13073	179.33974	770.28964	-330.52590	272.07559	800.13758	-395.88481	293.27523	761.55008	-396.59398	30.72284	905.21800	-821.32504	9.47304	672.22086	-820.79738	56.44775	715.99094	-880.97044	147.95065	792.19764	-769.66069	244.71932	826.21359	-709.13739	264.34471	785.48272	-718.06237	-441.20894	710.72428	-456.10178	-445.28095	680.56494	-667.31237	-442.62019	710.31425	-465.54703	-438.60567	695.44668	-638.00394	
